<svg width="20" height="20" viewBox="0 0 20 20" fill="none" xmlns="http://www.w3.org/2000/svg">
<path fill-rule="evenodd" clip-rule="evenodd" d="M3.29279 9.70703C3.10532 9.5195 3 9.26519 3 9.00003C3 8.73487 3.10532 8.48056 3.29279 8.29303L9.29279 2.29303C9.48031 2.10556 9.73462 2.00024 9.99979 2.00024C10.265 2.00024 10.5193 2.10556 10.7068 2.29303L16.7068 8.29303C16.8889 8.48163 16.9897 8.73423 16.9875 8.99643C16.9852 9.25863 16.88 9.50944 16.6946 9.69485C16.5092 9.88026 16.2584 9.98543 15.9962 9.9877C15.734 9.98998 15.4814 9.88919 15.2928 9.70703L10.9998 5.41403V17C10.9998 17.2652 10.8944 17.5196 10.7069 17.7071C10.5194 17.8947 10.265 18 9.99979 18C9.73457 18 9.48022 17.8947 9.29268 17.7071C9.10514 17.5196 8.99979 17.2652 8.99979 17V5.41403L4.70679 9.70703C4.51926 9.8945 4.26495 9.99982 3.99979 9.99982C3.73462 9.99982 3.48031 9.8945 3.29279 9.70703Z" fill="black"/>
</svg>
