<svg width="100" height="100" viewBox="0 0 100 100" fill="none" xmlns="http://www.w3.org/2000/svg">
<path fill-rule="evenodd" clip-rule="evenodd" d="M16 11C10.8147 11 6.5511 14.9467 6.04938 20H6V21V75V76H6.04938C6.5511 81.0533 10.8147 85 16 85H84C89.5229 85 94 80.5229 94 75V28C94 22.4772 89.5229 18 84 18H51.1168L50.7056 16.0809C50.0705 13.1173 47.4515 11 44.4205 11H16ZM50.0023 18C50.0015 18 50.0008 18 50 18L50.0023 18ZM50 22C48.7653 22 47.6983 21.1375 47.4396 19.9302L46.7944 16.9191C46.5545 15.7997 45.5653 15 44.4205 15H16C12.6863 15 10 17.6863 10 21V75C10 78.3137 12.6863 81 16 81H84C87.3137 81 90 78.3137 90 75V28C90 24.6863 87.3137 22 84 22L50 22Z" fill="#5B5953"/>
<path d="M66 40V64" stroke="#5B5953" stroke-width="4" stroke-linecap="round"/>
<path d="M54 52L78 52" stroke="#5B5953" stroke-width="4" stroke-linecap="round"/>
</svg>
