<svg width="20" height="26" viewBox="0 0 20 26" fill="none" xmlns="http://www.w3.org/2000/svg">
<path d="M11.3104 4.3888C11.5177 4.57119 11.8336 4.55098 12.016 4.34364C12.1984 4.13631 12.1782 3.82038 11.9709 3.63798L11.3104 4.3888ZM6.81563 1.00836L6.84825 0.509428L6.81563 1.00836ZM13.2002 1.00836L13.2496 0.510808L13.2002 1.00836ZM1.25957 9.34486L0.819469 9.10757L1.25957 9.34486ZM10.1298 14.0947L10.1458 14.5945L10.1298 14.0947ZM10.1298 16.615L10.3094 16.1484L10.1484 16.0865L9.98347 16.1369L10.1298 16.615ZM10.1298 25L10.1039 25.4993L10.1804 25.5033L10.2546 25.4842L10.1298 25ZM6.0687 22.0919L6.52423 21.8858L6.0687 22.0919ZM13.9313 22.0919L14.3741 22.3242L13.9313 22.0919ZM3.11159 15.6457L2.75901 16.0002L3.11159 15.6457ZM2.57547 12.3976L2.83327 11.9692L2.57547 12.3976ZM17.0018 15.6457L16.6202 15.3226L17.0018 15.6457ZM17.4532 12.3976L17.1836 11.9765L17.4532 12.3976ZM8.60351 18.0806C8.34219 18.1699 8.20272 18.4541 8.29198 18.7154C8.38125 18.9767 8.66545 19.1162 8.92677 19.0269L8.60351 18.0806ZM10.1298 18.263L10.1397 18.7629L10.1298 18.263ZM11.4828 19.0282C11.7448 19.1154 12.0279 18.9736 12.1151 18.7116C12.2022 18.4496 12.0605 18.1665 11.7985 18.0793L11.4828 19.0282ZM6.84825 0.509428C5.87611 0.445872 5.1609 1.01971 4.66375 1.74348C4.16884 2.464 3.82735 3.41378 3.58874 4.32456C3.348 5.24349 3.20189 6.16308 3.11589 6.84931C3.07277 7.19337 3.0445 7.48096 3.02695 7.68327C3.01818 7.78447 3.01208 7.86445 3.00814 7.91963C3.00617 7.94723 3.00474 7.96863 3.00379 7.98339C3.00332 7.99077 3.00296 7.99649 3.00272 8.0005C3.0026 8.0025 3.0025 8.00407 3.00243 8.00521C3.0024 8.00578 3.00237 8.00624 3.00235 8.00659C3.00234 8.00677 3.00233 8.00695 3.00233 8.00704C3.00232 8.00719 3.00231 8.00732 3.50147 8.03621C4.00064 8.06511 4.00063 8.06518 4.00063 8.06522C4.00063 8.0652 4.00063 8.06522 4.00063 8.06517C4.00064 8.06508 4.00065 8.06489 4.00067 8.06458C4.00071 8.06397 4.00077 8.06293 4.00086 8.06147C4.00104 8.05854 4.00132 8.05391 4.00173 8.04764C4.00253 8.0351 4.00381 8.016 4.00561 7.99078C4.0092 7.94033 4.01491 7.86544 4.02321 7.76966C4.03983 7.57802 4.06682 7.30325 4.10813 6.97366C4.19098 6.31258 4.33034 5.4397 4.55609 4.57799C4.78398 3.70814 5.09001 2.88913 5.48803 2.30967C5.88381 1.73347 6.30696 1.47617 6.78301 1.5073L6.84825 0.509428ZM3.50147 8.03621C3.16686 8.40774 3.16701 8.40787 3.16717 8.40802C3.16724 8.40808 3.16741 8.40823 3.16754 8.40835C3.16781 8.4086 3.16812 8.40887 3.16847 8.40918C3.16916 8.40981 3.17002 8.41057 3.17103 8.41147C3.17306 8.41328 3.17572 8.41563 3.17902 8.41853C3.18561 8.42432 3.19472 8.43225 3.20633 8.44219C3.22955 8.46206 3.26274 8.48995 3.30565 8.5247C3.39143 8.59419 3.51617 8.69125 3.67768 8.8066C4.00048 9.03716 4.47151 9.3418 5.07323 9.64574C6.27585 10.2532 8.01029 10.8627 10.1298 10.8627V9.86269C8.20405 9.86269 6.62433 9.30891 5.52411 8.75316C4.9744 8.47549 4.54684 8.19851 4.25889 7.99285C4.11503 7.8901 4.00636 7.80539 3.93509 7.74765C3.89946 7.71879 3.87321 7.6967 3.85661 7.68249C3.84831 7.67539 3.84243 7.67026 3.839 7.66724C3.83728 7.66574 3.83618 7.66476 3.83569 7.66433C3.83545 7.66411 3.83536 7.66403 3.83543 7.66409C3.83546 7.66412 3.83553 7.66418 3.83564 7.66428C3.8357 7.66433 3.83581 7.66443 3.83584 7.66446C3.83596 7.66457 3.83609 7.66469 3.50147 8.03621ZM10.1298 10.8627C12.0392 10.8627 13.6796 10.2476 14.8337 9.64223C15.4124 9.33869 15.874 9.03485 16.1926 8.80556C16.3521 8.69081 16.4762 8.59442 16.5616 8.52563C16.6043 8.49122 16.6375 8.46369 16.6605 8.44418C16.6721 8.43443 16.6811 8.42667 16.6876 8.42107C16.6908 8.41827 16.6934 8.416 16.6954 8.41429C16.6964 8.41343 16.6972 8.41271 16.6978 8.41214C16.6982 8.41185 16.6985 8.41159 16.6987 8.41138C16.6988 8.41127 16.699 8.41113 16.699 8.41108C16.6992 8.41095 16.6993 8.41083 16.3682 8.03621C16.037 7.6616 16.0371 7.66149 16.0372 7.6614C16.0373 7.66138 16.0374 7.6613 16.0374 7.66126C16.0375 7.66118 16.0375 7.66114 16.0375 7.66114C16.0376 7.66112 16.0374 7.66125 16.0371 7.66151C16.0365 7.66203 16.0353 7.66311 16.0334 7.6647C16.0297 7.6679 16.0236 7.67321 16.0149 7.6805C15.9977 7.69507 15.9707 7.71752 15.9345 7.74673C15.8619 7.80516 15.7522 7.89053 15.6085 7.99388C15.321 8.20082 14.8993 8.4786 14.3692 8.75667C13.3057 9.31452 11.8269 9.86269 10.1298 9.86269V10.8627ZM16.3682 8.03621C16.8657 7.98616 16.8657 7.98604 16.8656 7.9859C16.8656 7.98582 16.8656 7.98566 16.8656 7.9855C16.8656 7.98517 16.8655 7.98475 16.8655 7.98422C16.8654 7.98316 16.8652 7.98169 16.865 7.97982C16.8646 7.97608 16.8641 7.97073 16.8633 7.96382C16.8619 7.94999 16.8597 7.92992 16.8568 7.904C16.8509 7.85218 16.8421 7.77696 16.83 7.68162C16.8059 7.491 16.7688 7.21954 16.7164 6.89345C16.6118 6.24273 16.4453 5.36765 16.1979 4.48051C15.9522 3.59931 15.6188 2.67673 15.1694 1.94806C14.729 1.23395 14.1069 0.595893 13.2496 0.510808L13.1509 1.50592C13.5363 1.54418 13.9317 1.84627 14.3183 2.47302C14.6959 3.08519 14.9991 3.90415 15.2347 4.74908C15.4686 5.58807 15.628 6.4237 15.7291 7.05215C15.7795 7.36565 15.815 7.6259 15.838 7.80709C15.8494 7.89765 15.8577 7.96836 15.8631 8.01599C15.8657 8.0398 15.8677 8.05784 15.869 8.06969C15.8696 8.07561 15.87 8.07999 15.8703 8.08277C15.8705 8.08416 15.8706 8.08515 15.8706 8.08574C15.8707 8.08603 15.8707 8.08622 15.8707 8.08631C15.8707 8.08636 15.8707 8.08634 15.8707 8.08637C15.8707 8.08633 15.8707 8.08627 16.3682 8.03621ZM11.9709 3.63798L10.7037 2.52322L10.0432 3.27404L11.3104 4.3888L11.9709 3.63798ZM10.3735 2.89863C10.7023 2.522 10.7023 2.52194 10.7022 2.52187C10.7021 2.52184 10.7021 2.52176 10.702 2.5217C10.7018 2.52157 10.7017 2.52142 10.7015 2.52124C10.701 2.52087 10.7005 2.5204 10.6998 2.51982C10.6985 2.51867 10.6967 2.51709 10.6944 2.51509C10.6897 2.51109 10.6832 2.50544 10.6747 2.49824C10.6579 2.48384 10.6335 2.46322 10.6023 2.43726C10.54 2.38535 10.4502 2.31191 10.3381 2.22385C10.1142 2.0481 9.79895 1.81223 9.43356 1.57241C8.72834 1.10953 7.74287 0.567918 6.84825 0.509428L6.78301 1.5073C7.39413 1.54725 8.18758 1.95077 8.88484 2.40842C9.22069 2.62885 9.51255 2.8471 9.72052 3.01038C9.82428 3.09184 9.90656 3.15916 9.96234 3.20563C9.99022 3.22885 10.0114 3.24683 10.0254 3.25872C10.0323 3.26467 10.0375 3.26909 10.0407 3.27188C10.0423 3.27328 10.0435 3.27426 10.0441 3.27483C10.0444 3.27511 10.0446 3.27529 10.0447 3.27536C10.0448 3.2754 10.0448 3.27541 10.0448 3.27539C10.0447 3.27538 10.0447 3.27535 10.0447 3.27534C10.0447 3.2753 10.0446 3.27526 10.3735 2.89863ZM13.2496 0.510808C12.2416 0.410761 11.3928 1.01845 10.8555 1.53498C10.5756 1.80406 10.3511 2.07616 10.197 2.27991C10.1196 2.38228 10.059 2.46868 10.0171 2.53053C9.99608 2.56149 9.97972 2.5864 9.96822 2.60418C9.96246 2.61308 9.95792 2.62021 9.95461 2.62543C9.95296 2.62804 9.95162 2.63018 9.95059 2.63182C9.95007 2.63265 9.94964 2.63335 9.94928 2.63392C9.9491 2.63421 9.94894 2.63446 9.9488 2.63469C9.94873 2.6348 9.94864 2.63495 9.94861 2.635C9.94852 2.63514 9.94844 2.63527 10.3735 2.89863C10.7985 3.16198 10.7984 3.1621 10.7983 3.1622C10.7983 3.16223 10.7983 3.16233 10.7982 3.16238C10.7982 3.16248 10.7981 3.16255 10.7981 3.16259C10.7981 3.16267 10.7981 3.16263 10.7982 3.16247C10.7984 3.16215 10.7989 3.16135 10.7997 3.1601C10.8013 3.15759 10.804 3.15326 10.8079 3.14721C10.8158 3.13512 10.8281 3.11624 10.8448 3.09158C10.8783 3.0422 10.9289 2.97003 10.9946 2.88311C11.1269 2.70825 11.3167 2.47875 11.5485 2.25592C12.0346 1.78862 12.5993 1.45118 13.1509 1.50592L13.2496 0.510808ZM3.50147 8.03621C3.47285 7.53703 3.47266 7.53704 3.47247 7.53705C3.47239 7.53706 3.47219 7.53707 3.47205 7.53708C3.47176 7.5371 3.47144 7.53712 3.4711 7.53714C3.47042 7.53718 3.46964 7.53722 3.46877 7.53728C3.46701 7.53739 3.46487 7.53753 3.46235 7.53771C3.45731 7.53806 3.45074 7.53854 3.44273 7.5392C3.42672 7.54051 3.4049 7.5425 3.3779 7.54544C3.32396 7.55132 3.24898 7.56104 3.15808 7.5768C2.97716 7.60817 2.72847 7.6643 2.45502 7.7643C1.91487 7.96182 1.22796 8.34995 0.819469 9.10757L1.69968 9.58215C1.94776 9.12204 2.3818 8.85584 2.79846 8.70347C3.00341 8.62853 3.19209 8.58582 3.32893 8.56209C3.39692 8.5503 3.45092 8.5434 3.48625 8.53955C3.50388 8.53763 3.51675 8.53648 3.52429 8.53587C3.52805 8.53556 3.53046 8.53538 3.53146 8.53532C3.53196 8.53528 3.5321 8.53527 3.53188 8.53529C3.53177 8.53529 3.53156 8.53531 3.53127 8.53532C3.53112 8.53533 3.53095 8.53534 3.53075 8.53535C3.53066 8.53536 3.53049 8.53537 3.53045 8.53537C3.53028 8.53538 3.5301 8.53539 3.50147 8.03621ZM19.5 9.97494C19.5 9.48637 19.2261 9.09694 18.9348 8.81763C18.6384 8.5334 18.2616 8.3017 17.9128 8.1223C17.5596 7.9406 17.2102 7.79993 16.9514 7.70514C16.8213 7.6575 16.7124 7.62084 16.6353 7.59587C16.5968 7.58338 16.566 7.57377 16.5445 7.56715C16.5337 7.56384 16.5252 7.56127 16.5191 7.55946C16.5161 7.55855 16.5137 7.55783 16.5119 7.5573C16.511 7.55703 16.5102 7.55682 16.5097 7.55665C16.5094 7.55656 16.5091 7.55649 16.5089 7.55643C16.5088 7.5564 16.5087 7.55636 16.5086 7.55634C16.5085 7.55631 16.5084 7.55628 16.3682 8.03621C16.2279 8.51615 16.2279 8.51612 16.2278 8.5161C16.2278 8.51609 16.2277 8.51608 16.2277 8.51607C16.2276 8.51605 16.2276 8.51605 16.2277 8.51606C16.2277 8.51608 16.2279 8.51614 16.2283 8.51625C16.229 8.51647 16.2304 8.51687 16.2323 8.51745C16.2362 8.51862 16.2425 8.52051 16.251 8.52312C16.268 8.52833 16.2938 8.53639 16.3272 8.54721C16.394 8.56886 16.4908 8.60142 16.6074 8.64414C16.8421 8.73009 17.1506 8.85478 17.4554 9.01154C17.7646 9.1706 18.0457 9.35048 18.2427 9.53942C18.4449 9.73329 18.5 9.87864 18.5 9.97494H19.5ZM10.1298 16.615C9.98347 16.1369 9.98351 16.1369 9.98355 16.1369C9.98355 16.1369 9.98358 16.1369 9.98358 16.1369C9.98359 16.1369 9.98357 16.1369 9.98352 16.1369C9.98342 16.1369 9.9832 16.137 9.98288 16.1371C9.98222 16.1373 9.98112 16.1376 9.97957 16.1381C9.97647 16.1391 9.9716 16.1405 9.96503 16.1425C9.95189 16.1464 9.93196 16.1523 9.90583 16.1599C9.85355 16.1751 9.77651 16.197 9.67935 16.2235C9.48482 16.2764 9.21072 16.3472 8.89387 16.4179C8.25213 16.561 7.46647 16.6967 6.81563 16.6967V17.6967C7.57818 17.6967 8.4496 17.5415 9.11158 17.3939C9.4466 17.3191 9.73601 17.2445 9.94204 17.1884C10.0452 17.1603 10.1277 17.1368 10.1849 17.1202C10.2135 17.1119 10.2357 17.1053 10.2511 17.1007C10.2588 17.0984 10.2648 17.0966 10.269 17.0953C10.2711 17.0947 10.2727 17.0942 10.2739 17.0938C10.2745 17.0936 10.275 17.0935 10.2753 17.0934C10.2755 17.0933 10.2757 17.0933 10.2758 17.0933C10.2759 17.0932 10.2759 17.0932 10.276 17.0932C10.276 17.0932 10.2761 17.0932 10.1298 16.615ZM6.81563 16.6967C6.52417 16.6967 6.12657 16.4969 5.7395 16.2122C5.55978 16.0801 5.40507 15.9468 5.29514 15.8462C5.24046 15.7962 5.19758 15.755 5.169 15.7269C5.15473 15.7128 5.14408 15.7021 5.13735 15.6953C5.13399 15.6919 5.13162 15.6895 5.13027 15.6881C5.1296 15.6874 5.12918 15.687 5.12903 15.6868C5.12895 15.6867 5.12894 15.6867 5.129 15.6868C5.12902 15.6868 5.12907 15.6869 5.12913 15.6869C5.12916 15.687 5.12922 15.687 5.12923 15.687C5.12929 15.6871 5.12936 15.6872 4.76866 16.0334C4.40796 16.3797 4.40804 16.3798 4.40812 16.3799C4.40815 16.3799 4.40823 16.38 4.4083 16.38C4.40843 16.3802 4.40857 16.3803 4.40873 16.3805C4.40906 16.3808 4.40945 16.3812 4.40992 16.3817C4.41084 16.3827 4.41204 16.3839 4.41351 16.3854C4.41645 16.3884 4.42046 16.3926 4.42551 16.3977C4.43559 16.4079 4.44984 16.4222 4.46792 16.44C4.50404 16.4755 4.55567 16.5251 4.62021 16.5841C4.74873 16.7017 4.93134 16.8592 5.14707 17.0179C5.55091 17.3148 6.1768 17.6967 6.81563 17.6967V16.6967ZM4.76866 16.0334C4.27021 16.0728 4.27021 16.0728 4.27022 16.0729C4.27023 16.073 4.27023 16.073 4.27024 16.0731C4.27025 16.0733 4.27027 16.0736 4.2703 16.0739C4.27035 16.0745 4.27041 16.0753 4.2705 16.0764C4.27067 16.0785 4.27092 16.0816 4.27125 16.0856C4.2719 16.0935 4.27287 16.1051 4.27416 16.1201C4.27673 16.1501 4.2806 16.1939 4.28586 16.2501C4.29637 16.3625 4.31244 16.5247 4.33485 16.726C4.37962 17.1282 4.44984 17.6877 4.55173 18.3174C4.75345 19.5642 5.08648 21.1341 5.61317 22.2981L6.52423 21.8858C6.05526 20.8494 5.73828 19.3901 5.53889 18.1577C5.44023 17.5479 5.37212 17.0053 5.32871 16.6153C5.30702 16.4205 5.29153 16.2641 5.28151 16.157C5.2765 16.1034 5.27286 16.0621 5.27049 16.0345C5.2693 16.0207 5.26844 16.0104 5.26788 16.0036C5.2676 16.0002 5.2674 15.9977 5.26727 15.9961C5.26721 15.9953 5.26716 15.9947 5.26714 15.9944C5.26712 15.9942 5.26711 15.9941 5.26711 15.9941C5.26711 15.9941 5.26711 15.9941 5.26711 15.9941C5.26711 15.9941 5.26711 15.9941 4.76866 16.0334ZM5.61317 22.2981C6.30013 23.8162 7.42192 24.6198 8.365 25.0389C8.83465 25.2476 9.26143 25.3619 9.57266 25.4243C9.72863 25.4556 9.85664 25.4741 9.94787 25.4849C9.99352 25.4903 10.0301 25.4938 10.0564 25.496C10.0696 25.4971 10.0802 25.4978 10.0882 25.4984C10.0922 25.4986 10.0955 25.4988 10.0981 25.499C10.0994 25.4991 10.1006 25.4991 10.1016 25.4992C10.102 25.4992 10.1025 25.4993 10.1029 25.4993C10.1031 25.4993 10.1033 25.4993 10.1034 25.4993C10.1037 25.4993 10.1039 25.4993 10.1298 25C10.1556 24.5007 10.1558 24.5007 10.156 24.5007C10.1561 24.5007 10.1563 24.5007 10.1564 24.5007C10.1566 24.5007 10.1568 24.5007 10.157 24.5007C10.1573 24.5008 10.1574 24.5008 10.1573 24.5008C10.1573 24.5008 10.1565 24.5007 10.1551 24.5006C10.1524 24.5004 10.1471 24.5001 10.1394 24.4994C10.1239 24.4981 10.0989 24.4958 10.0652 24.4918C9.99785 24.4838 9.89649 24.4694 9.7694 24.4439C9.51451 24.3927 9.16041 24.298 8.77106 24.125C7.99614 23.7807 7.08739 23.1303 6.52423 21.8858L5.61317 22.2981ZM10.1298 25C10.2546 25.4842 10.2548 25.4841 10.255 25.4841C10.255 25.4841 10.2552 25.484 10.2554 25.484C10.2557 25.4839 10.256 25.4838 10.2564 25.4837C10.2571 25.4835 10.2581 25.4833 10.2591 25.483C10.2613 25.4824 10.2641 25.4817 10.2675 25.4808C10.2743 25.4789 10.2836 25.4764 10.2953 25.4731C10.3186 25.4665 10.3514 25.457 10.3926 25.4443C10.4749 25.4189 10.5913 25.3806 10.7334 25.3278C11.0171 25.2224 11.4067 25.0578 11.8354 24.8188C12.6873 24.3438 13.7277 23.5562 14.3741 22.3242L13.4885 21.8596C12.9652 22.8571 12.1049 23.5236 11.3484 23.9453C10.973 24.1546 10.6314 24.2989 10.3852 24.3904C10.2623 24.4361 10.1639 24.4683 10.0977 24.4887C10.0647 24.4989 10.0398 24.5061 10.024 24.5106C10.0161 24.5128 10.0104 24.5144 10.0072 24.5152C10.0056 24.5156 10.0046 24.5159 10.0042 24.516C10.004 24.5161 10.004 24.5161 10.0041 24.516C10.0042 24.516 10.0043 24.516 10.0044 24.516C10.0045 24.516 10.0046 24.5159 10.0046 24.5159C10.0048 24.5159 10.0049 24.5158 10.1298 25ZM14.3741 22.3242C14.9791 21.171 15.2792 19.5792 15.4327 18.3223C15.5105 17.685 15.5525 17.1165 15.5751 16.7072C15.5864 16.5024 15.5928 16.3369 15.5965 16.222C15.5983 16.1645 15.5994 16.1197 15.6001 16.0888C15.6004 16.0734 15.6006 16.0615 15.6008 16.0532C15.6008 16.0491 15.6009 16.0459 15.6009 16.0436C15.6009 16.0425 15.6009 16.0416 15.601 16.041C15.601 16.0406 15.601 16.0404 15.601 16.0401C15.601 16.04 15.601 16.0399 15.601 16.0399C15.601 16.0398 15.601 16.0397 15.101 16.0334C14.6011 16.0272 14.6011 16.0271 14.6011 16.0271C14.6011 16.0271 14.6011 16.0271 14.6011 16.0271C14.6011 16.0271 14.6011 16.0272 14.601 16.0273C14.601 16.0276 14.601 16.0282 14.601 16.0289C14.601 16.0304 14.601 16.0329 14.6009 16.0363C14.6008 16.043 14.6006 16.0534 14.6003 16.0672C14.5997 16.0948 14.5987 16.1364 14.597 16.1903C14.5935 16.2983 14.5874 16.4559 14.5766 16.6522C14.5549 17.0451 14.5146 17.5908 14.4401 18.2011C14.2889 19.4394 14.0041 20.8769 13.4885 21.8596L14.3741 22.3242ZM15.101 16.0334C14.7265 15.7021 14.7266 15.702 14.7267 15.702C14.7267 15.702 14.7267 15.7019 14.7268 15.7019C14.7268 15.7018 14.7269 15.7017 14.7269 15.7017C14.727 15.7016 14.727 15.7016 14.7269 15.7017C14.7268 15.7019 14.7264 15.7023 14.7258 15.7029C14.7246 15.7043 14.7224 15.7067 14.7194 15.71C14.7133 15.7168 14.7035 15.7274 14.6905 15.7413C14.6643 15.7692 14.6249 15.8102 14.5747 15.8599C14.4737 15.96 14.3316 16.0924 14.1666 16.2235C14.0001 16.3557 13.8197 16.4789 13.6421 16.5673C13.4607 16.6576 13.312 16.6967 13.2002 16.6967V17.6967C13.5243 17.6967 13.831 17.5903 14.0878 17.4625C14.3483 17.3328 14.5886 17.1652 14.7884 17.0066C14.9895 16.8469 15.1593 16.6885 15.2784 16.5704C15.3383 16.5111 15.3862 16.4613 15.4197 16.4255C15.4365 16.4077 15.4497 16.3933 15.4591 16.383C15.4638 16.3778 15.4675 16.3737 15.4703 16.3706C15.4716 16.3691 15.4728 16.3678 15.4736 16.3668C15.4741 16.3663 15.4744 16.3659 15.4747 16.3656C15.4749 16.3654 15.475 16.3653 15.4752 16.3651C15.4752 16.365 15.4753 16.365 15.4753 16.3649C15.4754 16.3648 15.4755 16.3648 15.101 16.0334ZM13.2002 16.6967C12.4774 16.6967 11.754 16.5611 11.2032 16.4212C10.9298 16.3518 10.7033 16.2825 10.5462 16.2309C10.4678 16.2051 10.4069 16.1839 10.3665 16.1694C10.3463 16.1621 10.3312 16.1566 10.3215 16.153C10.3167 16.1512 10.3132 16.1499 10.3112 16.1491C10.3102 16.1487 10.3095 16.1485 10.3092 16.1484C10.3091 16.1483 10.309 16.1483 10.309 16.1483C10.3091 16.1483 10.3091 16.1483 10.3092 16.1483C10.3092 16.1483 10.3092 16.1484 10.3093 16.1484C10.3093 16.1484 10.3094 16.1484 10.1298 16.615C9.95015 17.0817 9.95023 17.0817 9.95032 17.0817C9.95036 17.0818 9.95046 17.0818 9.95053 17.0818C9.95068 17.0819 9.95086 17.0819 9.95106 17.082C9.95145 17.0822 9.95194 17.0824 9.95252 17.0826C9.95368 17.083 9.95521 17.0836 9.9571 17.0843C9.96088 17.0857 9.9661 17.0877 9.97273 17.0902C9.98599 17.0951 10.0049 17.1021 10.029 17.1107C10.0772 17.128 10.1466 17.1522 10.2342 17.181C10.4092 17.2384 10.6579 17.3145 10.9571 17.3905C11.5516 17.5414 12.3635 17.6967 13.2002 17.6967V16.6967ZM4.62041 13.816C6.40922 14.3714 8.49108 14.6476 10.1458 14.5945L10.1137 13.595C8.57463 13.6444 6.60371 13.3847 4.91691 12.861L4.62041 13.816ZM5.26866 16.0334V13.3385H4.26866V16.0334H5.26866ZM10.1458 14.5945C11.7763 14.5421 13.6247 14.3286 15.2369 13.8731L14.9651 12.9108C13.4545 13.3375 11.6918 13.5443 10.1137 13.595L10.1458 14.5945ZM15.601 16.0334V13.392H14.601V16.0334H15.601ZM4.76866 16.0334C4.73515 15.5346 4.73524 15.5346 4.73534 15.5345C4.73536 15.5345 4.73545 15.5345 4.7355 15.5345C4.7356 15.5345 4.73569 15.5345 4.73575 15.5345C4.73588 15.5345 4.73594 15.5345 4.73594 15.5345C4.73592 15.5345 4.73563 15.5345 4.73508 15.5346C4.73396 15.5346 4.73178 15.5348 4.72858 15.5349C4.72218 15.5353 4.71176 15.5358 4.69777 15.5363C4.66973 15.5374 4.62765 15.5385 4.57513 15.5386C4.46923 15.5387 4.32513 15.5345 4.17024 15.5178C4.01356 15.5008 3.85812 15.4722 3.72485 15.4285C3.58746 15.3833 3.50569 15.3325 3.46416 15.2912L2.75901 16.0002C2.95252 16.1927 3.19541 16.3071 3.41279 16.3785C3.63429 16.4513 3.86375 16.4904 4.06257 16.512C4.26319 16.5337 4.44521 16.5388 4.57657 16.5386C4.64267 16.5385 4.697 16.5371 4.73571 16.5356C4.75509 16.5349 4.77063 16.5341 4.78185 16.5335C4.78746 16.5332 4.792 16.5329 4.79541 16.5327C4.79711 16.5326 4.79853 16.5325 4.79966 16.5325C4.80023 16.5324 4.80072 16.5324 4.80114 16.5324C4.80135 16.5324 4.80154 16.5324 4.80171 16.5323C4.8018 16.5323 4.80191 16.5323 4.80196 16.5323C4.80207 16.5323 4.80218 16.5323 4.76866 16.0334ZM0.819469 9.10757C0.415264 9.85724 0.405144 10.5942 0.729488 11.2591C1.03871 11.893 1.62617 12.4099 2.31767 12.826L2.83327 11.9692C2.22066 11.6005 1.81736 11.2083 1.62825 10.8207C1.45426 10.464 1.43825 10.067 1.69968 9.58215L0.819469 9.10757ZM2.31767 12.826C2.97832 13.2235 3.77436 13.5534 4.62041 13.816L4.91691 12.861C4.12173 12.6141 3.40524 12.3133 2.83327 11.9692L2.31767 12.826ZM3.46416 15.2912C3.33298 15.1607 3.22101 14.9443 3.14109 14.6422C3.06262 14.3456 3.02569 14.0072 3.01425 13.6772C3.00289 13.3494 3.01709 13.0447 3.03439 12.821C3.043 12.7096 3.05228 12.6195 3.0593 12.5581C3.0628 12.5274 3.06573 12.504 3.0677 12.4888C3.06869 12.4812 3.06944 12.4756 3.0699 12.4722C3.07014 12.4705 3.0703 12.4694 3.07038 12.4688C3.07042 12.4685 3.07045 12.4683 3.07045 12.4683C3.07045 12.4683 3.07045 12.4683 3.07044 12.4684C3.07043 12.4684 3.07042 12.4685 3.07042 12.4685C3.07041 12.4686 3.0704 12.4686 2.57547 12.3976C2.08055 12.3265 2.08053 12.3266 2.08052 12.3267C2.08051 12.3268 2.08049 12.3269 2.08048 12.327C2.08045 12.3272 2.08041 12.3275 2.08037 12.3277C2.08029 12.3283 2.0802 12.329 2.08008 12.3298C2.07984 12.3315 2.07952 12.3338 2.07914 12.3366C2.07836 12.3423 2.07731 12.3502 2.07601 12.3602C2.07342 12.3801 2.06987 12.4086 2.06576 12.4446C2.05754 12.5166 2.04703 12.6189 2.03736 12.7439C2.01811 12.9929 2.00184 13.3366 2.01485 13.7118C2.02778 14.0847 2.07005 14.5038 2.17435 14.898C2.27719 15.2867 2.45155 15.6945 2.75901 16.0002L3.46416 15.2912ZM15.101 16.0334C15.0348 16.529 15.0349 16.529 15.0351 16.5291C15.0351 16.5291 15.0352 16.5291 15.0353 16.5291C15.0355 16.5291 15.0357 16.5292 15.036 16.5292C15.0364 16.5292 15.037 16.5293 15.0376 16.5294C15.0389 16.5296 15.0405 16.5298 15.0424 16.53C15.0463 16.5305 15.0516 16.5312 15.0581 16.5319C15.0712 16.5335 15.0893 16.5355 15.112 16.5378C15.1573 16.5425 15.221 16.5482 15.2984 16.5529C15.4522 16.5625 15.6653 16.5688 15.8983 16.5548C16.1289 16.541 16.3953 16.5063 16.6492 16.4263C16.8991 16.3476 17.1774 16.212 17.3833 15.9688L16.6202 15.3226C16.5821 15.3675 16.5008 15.4246 16.3486 15.4726C16.2003 15.5193 16.022 15.5456 15.8384 15.5566C15.6572 15.5675 15.4866 15.5627 15.3603 15.5549C15.2977 15.551 15.2472 15.5464 15.2133 15.543C15.1964 15.5413 15.1838 15.5398 15.1759 15.5389C15.1719 15.5384 15.1692 15.5381 15.1677 15.5379C15.167 15.5378 15.1666 15.5377 15.1665 15.5377C15.1664 15.5377 15.1665 15.5377 15.1666 15.5378C15.1666 15.5378 15.1667 15.5378 15.1668 15.5378C15.1669 15.5378 15.167 15.5378 15.167 15.5378C15.1671 15.5378 15.1672 15.5378 15.101 16.0334ZM15.2369 13.8731C16.1565 13.6134 17.0183 13.2696 17.7227 12.8187L17.1836 11.9765C16.5895 12.3568 15.828 12.667 14.9651 12.9108L15.2369 13.8731ZM17.7227 12.8187C18.7513 12.1602 19.5 11.2303 19.5 9.97494H18.5C18.5 10.7664 18.0467 11.4239 17.1836 11.9765L17.7227 12.8187ZM17.3833 15.9688C17.6517 15.6519 17.8015 15.2457 17.8889 14.8603C17.9777 14.4686 18.0117 14.0553 18.0198 13.6873C18.0279 13.3173 18.0102 12.9799 17.9907 12.7357C17.9809 12.6132 17.9705 12.5131 17.9625 12.4428C17.9585 12.4076 17.9551 12.3798 17.9526 12.3603C17.9513 12.3506 17.9503 12.3429 17.9496 12.3375C17.9492 12.3347 17.9489 12.3325 17.9487 12.3309C17.9486 12.3301 17.9485 12.3294 17.9484 12.3289C17.9484 12.3286 17.9483 12.3284 17.9483 12.3282C17.9483 12.3281 17.9483 12.328 17.9483 12.3279C17.9483 12.3278 17.9482 12.3277 17.4532 12.3976C16.9581 12.4674 16.958 12.4674 16.958 12.4673C16.958 12.4673 16.958 12.4672 16.958 12.4672C16.958 12.4671 16.958 12.4671 16.958 12.4671C16.958 12.4672 16.958 12.4673 16.9581 12.4676C16.9582 12.4682 16.9583 12.4694 16.9586 12.4711C16.959 12.4745 16.9597 12.48 16.9607 12.4875C16.9626 12.5026 16.9655 12.5257 16.969 12.556C16.9759 12.6165 16.9851 12.7054 16.9939 12.8155C17.0116 13.0364 17.0272 13.3384 17.02 13.6653C17.0128 13.9942 16.9826 14.3354 16.9137 14.6391C16.8434 14.949 16.7418 15.179 16.6202 15.3226L17.3833 15.9688ZM8.76514 18.5538C8.92677 19.0269 8.92672 19.0269 8.92669 19.0269C8.92668 19.027 8.92664 19.027 8.92663 19.027C8.92659 19.027 8.92657 19.027 8.92656 19.027C8.92654 19.027 8.92657 19.027 8.92665 19.027C8.9268 19.0269 8.92715 19.0268 8.92769 19.0266C8.92876 19.0262 8.93059 19.0256 8.93314 19.0248C8.93824 19.0231 8.94623 19.0204 8.95683 19.0169C8.97805 19.01 9.00966 18.9998 9.04957 18.9875C9.1296 18.9627 9.24178 18.9295 9.36953 18.8962C9.63599 18.8265 9.92943 18.767 10.1397 18.7629L10.1199 17.7631C9.7852 17.7697 9.39632 17.8556 9.1167 17.9287C8.9714 17.9666 8.84459 18.0041 8.7539 18.0322C8.70844 18.0463 8.67175 18.0581 8.64602 18.0665C8.63314 18.0707 8.62298 18.0741 8.61581 18.0765C8.61223 18.0777 8.60939 18.0786 8.60732 18.0793C8.60629 18.0797 8.60546 18.0799 8.60482 18.0802C8.6045 18.0803 8.60423 18.0804 8.60401 18.0804C8.6039 18.0805 8.60381 18.0805 8.60372 18.0805C8.60368 18.0806 8.60363 18.0806 8.6036 18.0806C8.60355 18.0806 8.60351 18.0806 8.76514 18.5538ZM10.1397 18.7629C10.3713 18.7583 10.696 18.8171 10.9915 18.8895C11.1331 18.9242 11.2576 18.9594 11.3464 18.9859C11.3907 18.9991 11.4258 19.01 11.4494 19.0174C11.4612 19.0212 11.47 19.024 11.4757 19.0259C11.4785 19.0268 11.4806 19.0275 11.4818 19.0279C11.4824 19.0281 11.4828 19.0282 11.4829 19.0282C11.483 19.0283 11.4831 19.0283 11.483 19.0283C11.483 19.0283 11.483 19.0283 11.483 19.0283C11.483 19.0282 11.4829 19.0282 11.4829 19.0282C11.4829 19.0282 11.4828 19.0282 11.6406 18.5538C11.7985 18.0793 11.7984 18.0793 11.7983 18.0793C11.7983 18.0793 11.7983 18.0793 11.7982 18.0792C11.7981 18.0792 11.798 18.0792 11.7979 18.0791C11.7977 18.0791 11.7974 18.079 11.797 18.0788C11.7963 18.0786 11.7954 18.0783 11.7942 18.0779C11.792 18.0772 11.7888 18.0762 11.7848 18.0749C11.7769 18.0723 11.7656 18.0686 11.7514 18.0641C11.7228 18.0551 11.6821 18.0424 11.6317 18.0274C11.5312 17.9975 11.3906 17.9578 11.2296 17.9183C10.9198 17.8423 10.4891 17.7557 10.1199 17.7631L10.1397 18.7629Z" fill="#110801"/>
</svg>
