<svg width="20" height="20" viewBox="0 0 20 20" fill="none" xmlns="http://www.w3.org/2000/svg">
<g clip-path="url(#clip0)">
<path fill-rule="evenodd" clip-rule="evenodd" d="M18.75 17.5L18.75 2.5C18.75 2.16848 18.6183 1.85054 18.3839 1.61612C18.1495 1.3817 17.8315 1.25 17.5 1.25L2.5 1.25C2.16848 1.25 1.85054 1.3817 1.61612 1.61612C1.38169 1.85054 1.25 2.16848 1.25 2.5L1.25 17.5C1.25 17.8315 1.3817 18.1495 1.61612 18.3839C1.85054 18.6183 2.16848 18.75 2.5 18.75L17.5 18.75C17.8315 18.75 18.1495 18.6183 18.3839 18.3839C18.6183 18.1495 18.75 17.8315 18.75 17.5ZM20 2.5C20 1.83696 19.7366 1.20107 19.2678 0.732233C18.7989 0.263392 18.163 2.19055e-08 17.5 2.98122e-08L2.5 2.08685e-07C1.83696 2.16592e-07 1.20107 0.263392 0.732231 0.732233C0.263392 1.20107 -1.88544e-06 1.83696 -1.87754e-06 2.5L-1.69866e-06 17.5C-1.69076e-06 18.163 0.263392 18.7989 0.732231 19.2678C1.20107 19.7366 1.83696 20 2.5 20L17.5 20C18.163 20 18.7989 19.7366 19.2678 19.2678C19.7366 18.7989 20 18.163 20 17.5L20 2.5Z" fill="#1E1D2B"/>
<path fill-rule="evenodd" clip-rule="evenodd" d="M14.1926 8.56795C14.1345 8.62615 14.0656 8.67233 13.9896 8.70384C13.9137 8.73534 13.8323 8.75156 13.7501 8.75156C13.6679 8.75156 13.5865 8.73534 13.5106 8.70384C13.4346 8.67233 13.3657 8.62615 13.3076 8.56795L10.0001 5.2592L6.6926 8.56795C6.57524 8.6853 6.41607 8.75124 6.2501 8.75124C6.08413 8.75124 5.92496 8.6853 5.8076 8.56795C5.69024 8.45059 5.62431 8.29142 5.62431 8.12545C5.62431 7.95948 5.69024 7.8003 5.8076 7.68295L9.5576 3.93295C9.61566 3.87474 9.68463 3.82856 9.76056 3.79706C9.83649 3.76555 9.91789 3.74933 10.0001 3.74933C10.0823 3.74933 10.1637 3.76555 10.2396 3.79706C10.3156 3.82856 10.3845 3.87474 10.4426 3.93295L14.1926 7.68295C14.2508 7.741 14.297 7.80997 14.3285 7.8859C14.36 7.96184 14.3762 8.04324 14.3762 8.12545C14.3762 8.20765 14.36 8.28906 14.3285 8.36499C14.297 8.44092 14.2508 8.50989 14.1926 8.56795ZM14.1926 11.4329C14.1345 11.3747 14.0656 11.3286 13.9896 11.2971C13.9137 11.2655 13.8323 11.2493 13.7501 11.2493C13.6679 11.2493 13.5865 11.2655 13.5106 11.2971C13.4346 11.3286 13.3657 11.3747 13.3076 11.4329L10.0001 14.7417L6.6926 11.4329C6.57524 11.3156 6.41607 11.2497 6.2501 11.2497C6.08413 11.2497 5.92496 11.3156 5.8076 11.4329C5.69024 11.5503 5.62431 11.7095 5.62431 11.8754C5.62431 12.0414 5.69024 12.2006 5.8076 12.3179L9.5576 16.0679C9.61566 16.1262 9.68463 16.1723 9.76056 16.2038C9.83649 16.2353 9.91789 16.2516 10.0001 16.2516C10.0823 16.2516 10.1637 16.2353 10.2396 16.2038C10.3156 16.1723 10.3845 16.1262 10.4426 16.0679L14.1926 12.3179C14.2508 12.2599 14.297 12.1909 14.3285 12.115C14.36 12.0391 14.3762 11.9577 14.3762 11.8754C14.3762 11.7932 14.36 11.7118 14.3285 11.6359C14.297 11.56 14.2508 11.491 14.1926 11.4329Z" fill="#1E1D2B"/>
</g>
<defs>
<clipPath id="clip0">
<rect width="20" height="20" fill="white"/>
</clipPath>
</defs>
</svg>
